<svg width="14" height="16" viewBox="0 0 14 16" xmlns="http://www.w3.org/2000/svg">
<path d="M12.8106 1.94938C12.6931 1.86888 12.5431 1.85313 12.4111 1.9065C12.382 1.91875 9.55771 3.05975 7.18343 1.917C5.14514 0.934375 2.90029 1.39375 1.85714 1.70438V1.4375C1.85714 1.196 1.66514 1 1.42857 1C1.192 1 1 1.196 1 1.4375V14.5625C1 14.804 1.192 15 1.42857 15C1.66514 15 1.85714 14.804 1.85714 14.5625V9.62137C2.61657 9.3685 4.86743 8.76737 6.81743 9.708C7.744 10.1551 8.71343 10.3039 9.59371 10.3039C11.2866 10.3039 12.6477 9.7535 12.7326 9.7185C12.8937 9.65112 13 9.491 13 9.3125V2.3125C13 2.16725 12.9289 2.03163 12.8106 1.94938ZM12.1429 9.00275C11.3791 9.25562 9.12914 9.85412 7.18257 8.91612C5.14514 7.93437 2.90029 8.39375 1.85714 8.70438V2.62225C2.61657 2.36937 4.86743 1.76825 6.81743 2.70887C8.85314 3.68975 11.0997 3.23125 12.1429 2.91975V9.00275Z" stroke-width="1.2"/>
</svg>
