<svg viewBox="0 0 14 14" xmlns="http://www.w3.org/2000/svg">
<path d="M7.02734 0C3.18254 0 0 3.12785 0 6.97266C0 10.8175 3.18254 14 7.02734 14C10.8721 14 14 10.8175 14 6.97266C14 3.12785 10.8721 0 7.02734 0ZM7.02734 11.9492C6.57508 11.9492 6.20703 11.5812 6.20703 11.1289C6.20703 10.6766 6.57508 10.3086 7.02734 10.3086C7.47934 10.3086 7.84766 10.6766 7.84766 11.1289C7.84766 11.5812 7.47934 11.9492 7.02734 11.9492ZM8.48121 6.9073C8.07215 7.20781 7.84766 8.0016 7.84766 8.39781V8.61328C7.84766 9.06555 7.47934 9.43359 7.02734 9.43359C6.57508 9.43359 6.20703 9.06555 6.20703 8.61328V8.39781C6.20703 7.47769 6.68227 6.19172 7.5116 5.58441C8.14871 5.11656 7.81785 4.10156 7.02734 4.10156C6.57508 4.10156 6.20703 4.46961 6.20703 4.92188C6.20703 5.37414 5.83871 5.74219 5.38672 5.74219C4.93445 5.74219 4.56641 5.37414 4.56641 4.92188C4.56641 3.5648 5.67027 2.46094 7.02734 2.46094C8.38441 2.46094 9.48828 3.5648 9.48828 4.92188C9.48828 5.70309 9.11176 6.4452 8.48121 6.9073Z"/>
</svg>
