<svg width="15" height="13" viewBox="0 0 15 13" fill="none" xmlns="http://www.w3.org/2000/svg">
<path d="M0.843171 7.40581L0.819756 7.40069L10.8571 7.40069L7.70171 10.563C7.54719 10.7174 7.46244 10.9265 7.46244 11.1461C7.46244 11.3656 7.54719 11.5733 7.70171 11.728L8.19268 12.2192C8.34707 12.3736 8.5528 12.459 8.77219 12.459C8.99171 12.459 9.19756 12.3742 9.35195 12.2198L14.7609 6.81143C14.9159 6.65642 15.0006 6.44996 15 6.23033C15.0006 6.00947 14.9159 5.80289 14.7609 5.64813L9.35195 0.239233C9.19756 0.0849642 8.99183 8.62591e-05 8.77219 8.62399e-05C8.5528 8.62207e-05 8.34707 0.0850862 8.19268 0.239232L7.70171 0.730452C7.54719 0.884598 7.46244 1.09045 7.46244 1.30996C7.46244 1.52935 7.54719 1.72435 7.70171 1.87862L10.8927 5.05862L0.831951 5.05862C0.379878 5.05862 6.12897e-07 5.44825 5.73397e-07 5.90008L5.1266e-07 6.59484C4.7316e-07 7.04667 0.391098 7.40581 0.843171 7.40581Z" fill="#B8BBBF"/>
</svg>
