<svg width="15" height="13" viewBox="0 0 15 13" fill="none" xmlns="http://www.w3.org/2000/svg">
<path d="M14.1568 5.05317L14.1802 5.05829H4.14293L7.29829 1.89597C7.45281 1.74158 7.53756 1.53244 7.53756 1.31293C7.53756 1.09341 7.45281 0.885731 7.29829 0.730975L6.80732 0.239756C6.65293 0.0853658 6.4472 0 6.22781 0C6.00829 0 5.80244 0.0847561 5.64805 0.239146L0.23915 5.64756C0.0841496 5.80256 -0.000606489 6.00902 3.26724e-06 6.22866C-0.000606489 6.44951 0.0841496 6.6561 0.23915 6.81085L5.64805 12.2198C5.80244 12.374 6.00817 12.4589 6.22781 12.4589C6.4472 12.4589 6.65293 12.3739 6.80732 12.2198L7.29829 11.7285C7.45281 11.5744 7.53756 11.3685 7.53756 11.149C7.53756 10.9296 7.45281 10.7346 7.29829 10.5804L4.10732 7.40036H14.168C14.6201 7.40036 15 7.01073 15 6.5589V5.86414C15 5.41232 14.6089 5.05317 14.1568 5.05317Z" fill="#B8BBBF"/>
</svg>
