<svg width="17" height="15" viewBox="0 0 17 15" xmlns="http://www.w3.org/2000/svg">
<path d="M11.6833 10.7666V11.2666H12.1833H12.75C14.1195 11.2666 15.2333 10.1532 15.2333 8.78332V4.25C15.2333 2.88017 14.1195 1.76668 12.75 1.76668H4.25C2.88053 1.76668 1.76668 2.88013 1.76668 4.25V8.78339C1.76668 10.1532 2.88052 11.2667 4.25 11.2667H5.95C6.29888 11.2667 6.58332 11.5511 6.58332 11.9C6.58332 12.2489 6.2989 12.5334 5.95 12.5334H3.96668C2.05547 12.5334 0.5 10.9779 0.5 9.06668V3.96668C0.5 2.0555 2.05547 0.5 3.96668 0.5H13.0333C14.9445 0.5 16.5 2.0555 16.5 3.96668V9.06668C16.5 10.9779 14.9445 12.5334 13.0333 12.5334H12.1833H11.6833V13.0334V14.0167L8.8611 11.9L11.6833 9.78333V10.7666Z"/>
</svg>
